# xmcd CD database file
# Copyright (C) 1993-1998 Ti Kan
#
# Track frame offsets:
#	187
#	13317
#	25980
#	39227
#	50180
#	60617
#	71625
#	84517
#
# Disc length: 1298 seconds
#
# Revision: 1
# Processed by: cddbd v1.4b41PL1 Copyright (c) Steve Scherf et al.
# Submitted via: NotifyCDPlayer(CDDB) 1.51.3
#
DISCID=6a051008
DTITLE=Jim Reeves - I Guess I'm Crazy
DYEAR=1900
DGENRE=
TTITLE0=You'll Never Know
TTITLE1=I Love You Because
TTITLE2=Oh What It Seemed To Be
TTITLE3=I Guess I'm Crazy
TTITLE4=Am I Losing You
TTITLE5=Angels Don't Lie
TTITLE6=Four Walls
TTITLE7=Have I Told You Lately That I Love You?
EXTD=
EXTT0=
EXTT1=
EXTT2=
EXTT3=
EXTT4=
EXTT5=
EXTT6=
EXTT7=
PLAYORDER=
